<?xml version="1.0" encoding="iso-8859-1"?>
<!-- Generator: Adobe Illustrator 18.0.0, SVG Export Plug-In . SVG Version: 6.00 Build 0)  -->
<!DOCTYPE svg PUBLIC "-//W3C//DTD SVG 1.1//EN" "http://www.w3.org/Graphics/SVG/1.1/DTD/svg11.dtd">
<svg version="1.1" id="Capa_1" xmlns="http://www.w3.org/2000/svg" xmlns:xlink="http://www.w3.org/1999/xlink" x="0px" y="0px"
	 viewBox="0 0 475.869 475.869" style="enable-background:new 0 0 475.869 475.869;" xml:space="preserve">
<g>
	<path d="M433.774,145.746H171.93l142.31-74.959c7.584,3.779,16.786,4.043,24.84-0.201c13.305-7.002,18.402-23.484,11.4-36.79
		c-7.01-13.322-23.484-18.419-36.789-11.401c-8.047,4.229-13.027,11.958-14.212,20.324L103.857,145.746H42.096
		C18.845,145.746,0,164.599,0,187.834v226.687c0,23.251,18.845,42.104,42.096,42.104h391.678c23.251,0,42.095-18.853,42.095-42.104
		V187.834C475.869,164.599,457.025,145.746,433.774,145.746z M138.997,414.785c-8.257-1.457-16.234-3.732-23.794-6.847
		c-13.035-5.376-24.816-13.121-34.946-22.616c-1.813-1.703-3.57-3.455-5.274-5.266c-10.263-10.938-18.388-23.842-23.794-38.124
		c-2.511-6.613-4.438-13.507-5.693-20.632c-1.163-6.537-1.875-13.245-1.875-20.108s0.712-13.57,1.875-20.107
		c1.255-7.141,3.182-14.035,5.693-20.648c5.406-14.268,13.53-27.186,23.794-38.124c1.696-1.811,3.445-3.547,5.25-5.25
		c10.139-9.511,21.926-17.257,34.97-22.648c7.56-3.111,15.537-5.39,23.794-6.846c6.545-1.161,13.237-1.875,20.107-1.875
		c6.87,0,13.562,0.714,20.107,1.875c8.256,1.456,16.233,3.734,23.793,6.846c13.042,5.392,24.831,13.138,34.968,22.648
		c1.805,1.703,3.557,3.439,5.252,5.25c10.263,10.938,18.388,23.855,23.793,38.124c2.509,6.612,4.439,13.507,5.693,20.648
		c1.161,6.537,1.874,13.245,1.874,20.107s-0.712,13.57-1.874,20.108c-1.254,7.125-3.184,14.018-5.693,20.632
		c-5.406,14.282-13.53,27.187-23.793,38.124c-1.704,1.811-3.463,3.563-5.274,5.266c-10.131,9.495-21.913,17.24-34.946,22.616
		c-7.56,3.114-15.537,5.39-23.793,6.847c-6.545,1.162-13.237,1.875-20.107,1.875C152.234,416.66,145.542,415.947,138.997,414.785z
		 M368.799,404.391c-19.712,0-35.69-15.986-35.69-35.69c0-19.702,15.978-35.69,35.69-35.69c19.712,0,35.69,15.988,35.69,35.69
		C404.489,388.404,388.511,404.391,368.799,404.391z M368.799,269.375c-19.712,0-35.69-15.986-35.69-35.689
		c0-19.734,15.978-35.69,35.69-35.69c19.712,0,35.69,15.956,35.69,35.69C404.489,253.389,388.511,269.375,368.799,269.375z"/>
	<path d="M203.004,390.511c3.19-1.58,6.288-3.299,9.27-5.188h-9.27v-40.229h40.22v9.294c9.767-15.397,15.498-33.6,15.498-53.194
		c0-19.596-5.731-37.797-15.498-53.21v9.31h-40.22v-40.229h9.31c-2.998-1.905-6.104-3.625-9.31-5.204
		c-7.468-3.689-15.414-6.553-23.793-8.272c-6.491-1.332-13.221-2.03-20.107-2.03c-6.886,0-13.617,0.698-20.107,2.03
		c-8.38,1.72-16.327,4.584-23.794,8.272c-3.207,1.579-6.313,3.299-9.31,5.204h9.31v40.229h-40.22v-9.31
		c-9.768,15.413-15.499,33.614-15.499,53.21c0,19.595,5.731,37.797,15.499,53.194v-9.294h40.22v40.229h-9.271
		c2.982,1.89,6.08,3.608,9.271,5.188c7.467,3.673,15.414,6.538,23.794,8.258c6.49,1.331,13.221,2.029,20.107,2.029
		c6.886,0,13.616-0.698,20.107-2.029C187.591,397.049,195.536,394.184,203.004,390.511z M203.004,281.086h40.22v40.215h-40.22
		V281.086z M115.203,321.301h-40.22v-40.215h40.22V321.301z M138.997,217.065h40.214v40.229h-40.214V217.065z M138.997,281.086
		h40.214v40.215h-40.214V281.086z M138.997,385.322v-40.229h40.214v40.229H138.997z"/>
</g>
<g>
</g>
<g>
</g>
<g>
</g>
<g>
</g>
<g>
</g>
<g>
</g>
<g>
</g>
<g>
</g>
<g>
</g>
<g>
</g>
<g>
</g>
<g>
</g>
<g>
</g>
<g>
</g>
<g>
</g>
</svg>
